<?xml version="1.0" standalone="no"?>
<!DOCTYPE svg PUBLIC "-//W3C//DTD SVG 20010904//EN"
 "http://www.w3.org/TR/2001/REC-SVG-20010904/DTD/svg10.dtd">
<svg version="1.0" xmlns="http://www.w3.org/2000/svg"
 width="256.000000pt" height="256.000000pt" viewBox="0 0 256.000000 256.000000"
 preserveAspectRatio="xMidYMid meet">

<g transform="translate(0.000000,256.000000) scale(0.100000,-0.100000)"
fill="#000000" stroke="none">
<path d="M1145 2545 c-206 -45 -375 -176 -464 -357 -54 -111 -71 -182 -71
-303 0 -122 16 -192 72 -305 32 -67 58 -102 122 -166 142 -141 280 -199 476
-199 196 0 334 58 476 199 133 133 194 281 194 471 0 122 -16 192 -72 305 -57
119 -177 238 -298 297 -138 68 -296 89 -435 58z"/>
<path d="M959 1044 c-366 -66 -675 -355 -773 -724 -10 -36 -20 -113 -23 -171
-5 -101 -4 -107 18 -127 l23 -22 1076 0 1076 0 23 22 c23 20 23 26 18 127 -13
242 -116 461 -299 637 -145 139 -314 226 -505 259 -113 20 -524 19 -634 -1z"/>
</g>
</svg>
